<mxfile host="app.diagrams.net" modified="2020-12-11T12:57:25.561Z" agent="5.0 (Windows NT 10.0; Win64; x64) AppleWebKit/537.36 (KHTML, like Gecko) Chrome/86.0.4240.183 Safari/537.36" etag="qHUSPORsj5hW6h4kK_dy" version="14.0.1" type="github">
  <diagram id="kN_DZn5AIr_JsDbxmi87" name="Page-1">
    <mxGraphModel dx="981" dy="526" grid="1" gridSize="10" guides="1" tooltips="1" connect="1" arrows="1" fold="1" page="1" pageScale="1" pageWidth="827" pageHeight="1169" math="0" shadow="0">
      <root>
        <mxCell id="0" />
        <mxCell id="1" parent="0" />
        <mxCell id="aZICNZuISpffWM0xBc0j-1" value="City" style="swimlane;fontStyle=1;align=center;verticalAlign=top;childLayout=stackLayout;horizontal=1;startSize=26;horizontalStack=0;resizeParent=1;resizeParentMax=0;resizeLast=0;collapsible=1;marginBottom=0;" parent="1" vertex="1">
          <mxGeometry x="350" y="30" width="160" height="86" as="geometry" />
        </mxCell>
        <mxCell id="aZICNZuISpffWM0xBc0j-2" value="+ name: String" style="text;strokeColor=none;fillColor=none;align=left;verticalAlign=top;spacingLeft=4;spacingRight=4;overflow=hidden;rotatable=0;points=[[0,0.5],[1,0.5]];portConstraint=eastwest;" parent="aZICNZuISpffWM0xBc0j-1" vertex="1">
          <mxGeometry y="26" width="160" height="26" as="geometry" />
        </mxCell>
        <mxCell id="aZICNZuISpffWM0xBc0j-6" value="+ rating: Int" style="text;strokeColor=none;fillColor=none;align=left;verticalAlign=top;spacingLeft=4;spacingRight=4;overflow=hidden;rotatable=0;points=[[0,0.5],[1,0.5]];portConstraint=eastwest;" parent="aZICNZuISpffWM0xBc0j-1" vertex="1">
          <mxGeometry y="52" width="160" height="26" as="geometry" />
        </mxCell>
        <mxCell id="aZICNZuISpffWM0xBc0j-3" value="" style="line;strokeWidth=1;fillColor=none;align=left;verticalAlign=middle;spacingTop=-1;spacingLeft=3;spacingRight=3;rotatable=0;labelPosition=right;points=[];portConstraint=eastwest;" parent="aZICNZuISpffWM0xBc0j-1" vertex="1">
          <mxGeometry y="78" width="160" height="8" as="geometry" />
        </mxCell>
        <mxCell id="aZICNZuISpffWM0xBc0j-28" style="edgeStyle=orthogonalEdgeStyle;rounded=0;orthogonalLoop=1;jettySize=auto;html=1;endArrow=classic;endFill=1;entryX=0.25;entryY=1;entryDx=0;entryDy=0;" parent="1" source="aZICNZuISpffWM0xBc0j-8" target="aZICNZuISpffWM0xBc0j-1" edge="1">
          <mxGeometry relative="1" as="geometry">
            <mxPoint x="570" y="112" as="targetPoint" />
          </mxGeometry>
        </mxCell>
        <mxCell id="aZICNZuISpffWM0xBc0j-31" value="origin" style="edgeLabel;html=1;align=center;verticalAlign=middle;resizable=0;points=[];" parent="aZICNZuISpffWM0xBc0j-28" vertex="1" connectable="0">
          <mxGeometry x="0.7157" y="1" relative="1" as="geometry">
            <mxPoint x="-1.4299999999999997" y="14" as="offset" />
          </mxGeometry>
        </mxCell>
        <mxCell id="pPNFl-sELfXG4n1L16c5-2" value="1" style="edgeLabel;html=1;align=center;verticalAlign=middle;resizable=0;points=[];" vertex="1" connectable="0" parent="aZICNZuISpffWM0xBc0j-28">
          <mxGeometry x="0.749" relative="1" as="geometry">
            <mxPoint x="9.99" as="offset" />
          </mxGeometry>
        </mxCell>
        <mxCell id="aZICNZuISpffWM0xBc0j-37" style="edgeStyle=orthogonalEdgeStyle;rounded=0;orthogonalLoop=1;jettySize=auto;html=1;endArrow=classic;endFill=1;" parent="1" source="aZICNZuISpffWM0xBc0j-8" target="aZICNZuISpffWM0xBc0j-33" edge="1">
          <mxGeometry relative="1" as="geometry" />
        </mxCell>
        <mxCell id="aZICNZuISpffWM0xBc0j-38" value="*" style="edgeLabel;html=1;align=center;verticalAlign=middle;resizable=0;points=[];" parent="aZICNZuISpffWM0xBc0j-37" vertex="1" connectable="0">
          <mxGeometry x="-0.8067" y="-1" relative="1" as="geometry">
            <mxPoint x="-3.709999999999999" y="-10" as="offset" />
          </mxGeometry>
        </mxCell>
        <mxCell id="aZICNZuISpffWM0xBc0j-39" value="1" style="edgeLabel;html=1;align=center;verticalAlign=middle;resizable=0;points=[];" parent="aZICNZuISpffWM0xBc0j-37" vertex="1" connectable="0">
          <mxGeometry x="0.6899" relative="1" as="geometry">
            <mxPoint y="-9.03" as="offset" />
          </mxGeometry>
        </mxCell>
        <mxCell id="aZICNZuISpffWM0xBc0j-40" value="belongs to" style="edgeLabel;html=1;align=center;verticalAlign=middle;resizable=0;points=[];" parent="aZICNZuISpffWM0xBc0j-37" vertex="1" connectable="0">
          <mxGeometry x="0.0893" y="-1" relative="1" as="geometry">
            <mxPoint x="9.969999999999999" y="8.969999999999999" as="offset" />
          </mxGeometry>
        </mxCell>
        <mxCell id="aZICNZuISpffWM0xBc0j-8" value="Flight" style="swimlane;fontStyle=1;align=center;verticalAlign=top;childLayout=stackLayout;horizontal=1;startSize=26;horizontalStack=0;resizeParent=1;resizeParentMax=0;resizeLast=0;collapsible=1;marginBottom=0;" parent="1" vertex="1">
          <mxGeometry x="350" y="216" width="160" height="60" as="geometry" />
        </mxCell>
        <mxCell id="aZICNZuISpffWM0xBc0j-9" value="+ flightNumber: String" style="text;strokeColor=none;fillColor=none;align=left;verticalAlign=top;spacingLeft=4;spacingRight=4;overflow=hidden;rotatable=0;points=[[0,0.5],[1,0.5]];portConstraint=eastwest;" parent="aZICNZuISpffWM0xBc0j-8" vertex="1">
          <mxGeometry y="26" width="160" height="26" as="geometry" />
        </mxCell>
        <mxCell id="aZICNZuISpffWM0xBc0j-10" value="" style="line;strokeWidth=1;fillColor=none;align=left;verticalAlign=middle;spacingTop=-1;spacingLeft=3;spacingRight=3;rotatable=0;labelPosition=right;points=[];portConstraint=eastwest;" parent="aZICNZuISpffWM0xBc0j-8" vertex="1">
          <mxGeometry y="52" width="160" height="8" as="geometry" />
        </mxCell>
        <mxCell id="pPNFl-sELfXG4n1L16c5-4" style="edgeStyle=orthogonalEdgeStyle;rounded=0;orthogonalLoop=1;jettySize=auto;html=1;exitX=0.5;exitY=0;exitDx=0;exitDy=0;endArrow=diamondThin;endFill=0;" edge="1" parent="1" source="aZICNZuISpffWM0xBc0j-12" target="aZICNZuISpffWM0xBc0j-8">
          <mxGeometry relative="1" as="geometry" />
        </mxCell>
        <mxCell id="pPNFl-sELfXG4n1L16c5-5" style="edgeStyle=orthogonalEdgeStyle;rounded=0;orthogonalLoop=1;jettySize=auto;html=1;exitX=1;exitY=0.5;exitDx=0;exitDy=0;endArrow=classic;endFill=1;" edge="1" parent="1" source="aZICNZuISpffWM0xBc0j-12" target="aZICNZuISpffWM0xBc0j-24">
          <mxGeometry relative="1" as="geometry" />
        </mxCell>
        <mxCell id="pPNFl-sELfXG4n1L16c5-6" value="*" style="edgeLabel;html=1;align=center;verticalAlign=middle;resizable=0;points=[];" vertex="1" connectable="0" parent="pPNFl-sELfXG4n1L16c5-5">
          <mxGeometry x="-0.8314" y="1" relative="1" as="geometry">
            <mxPoint y="-8" as="offset" />
          </mxGeometry>
        </mxCell>
        <mxCell id="pPNFl-sELfXG4n1L16c5-7" value="1" style="edgeLabel;html=1;align=center;verticalAlign=middle;resizable=0;points=[];" vertex="1" connectable="0" parent="pPNFl-sELfXG4n1L16c5-5">
          <mxGeometry x="0.6771" y="2" relative="1" as="geometry">
            <mxPoint y="-7" as="offset" />
          </mxGeometry>
        </mxCell>
        <mxCell id="pPNFl-sELfXG4n1L16c5-15" value="customer" style="edgeLabel;html=1;align=center;verticalAlign=middle;resizable=0;points=[];" vertex="1" connectable="0" parent="pPNFl-sELfXG4n1L16c5-5">
          <mxGeometry x="0.5778" y="-1" relative="1" as="geometry">
            <mxPoint x="-13" y="10" as="offset" />
          </mxGeometry>
        </mxCell>
        <mxCell id="aZICNZuISpffWM0xBc0j-12" value="Booking" style="swimlane;fontStyle=1;align=center;verticalAlign=top;childLayout=stackLayout;horizontal=1;startSize=26;horizontalStack=0;resizeParent=1;resizeParentMax=0;resizeLast=0;collapsible=1;marginBottom=0;" parent="1" vertex="1">
          <mxGeometry x="350" y="360" width="160" height="34" as="geometry" />
        </mxCell>
        <mxCell id="aZICNZuISpffWM0xBc0j-14" value="" style="line;strokeWidth=1;fillColor=none;align=left;verticalAlign=middle;spacingTop=-1;spacingLeft=3;spacingRight=3;rotatable=0;labelPosition=right;points=[];portConstraint=eastwest;" parent="aZICNZuISpffWM0xBc0j-12" vertex="1">
          <mxGeometry y="26" width="160" height="8" as="geometry" />
        </mxCell>
        <mxCell id="pPNFl-sELfXG4n1L16c5-8" style="edgeStyle=orthogonalEdgeStyle;rounded=0;orthogonalLoop=1;jettySize=auto;html=1;exitX=1;exitY=0.25;exitDx=0;exitDy=0;endArrow=open;endFill=0;dashed=1;" edge="1" parent="1" source="aZICNZuISpffWM0xBc0j-16" target="aZICNZuISpffWM0xBc0j-8">
          <mxGeometry relative="1" as="geometry">
            <Array as="points">
              <mxPoint x="310" y="362" />
              <mxPoint x="310" y="260" />
            </Array>
          </mxGeometry>
        </mxCell>
        <mxCell id="pPNFl-sELfXG4n1L16c5-9" style="edgeStyle=orthogonalEdgeStyle;rounded=0;orthogonalLoop=1;jettySize=auto;html=1;exitX=1;exitY=0.5;exitDx=0;exitDy=0;entryX=0;entryY=0.5;entryDx=0;entryDy=0;dashed=1;endArrow=open;endFill=0;" edge="1" parent="1" source="aZICNZuISpffWM0xBc0j-16" target="aZICNZuISpffWM0xBc0j-12">
          <mxGeometry relative="1" as="geometry" />
        </mxCell>
        <mxCell id="pPNFl-sELfXG4n1L16c5-10" style="edgeStyle=orthogonalEdgeStyle;rounded=0;orthogonalLoop=1;jettySize=auto;html=1;exitX=1;exitY=0.75;exitDx=0;exitDy=0;dashed=1;endArrow=open;endFill=0;" edge="1" parent="1" source="aZICNZuISpffWM0xBc0j-16" target="aZICNZuISpffWM0xBc0j-24">
          <mxGeometry relative="1" as="geometry">
            <Array as="points">
              <mxPoint x="310" y="392" />
              <mxPoint x="310" y="450" />
              <mxPoint x="690" y="450" />
            </Array>
          </mxGeometry>
        </mxCell>
        <mxCell id="aZICNZuISpffWM0xBc0j-16" value="BookingManager" style="swimlane;fontStyle=1;align=center;verticalAlign=top;childLayout=stackLayout;horizontal=1;startSize=26;horizontalStack=0;resizeParent=1;resizeParentMax=0;resizeLast=0;collapsible=1;marginBottom=0;" parent="1" vertex="1">
          <mxGeometry x="20" y="347" width="230" height="60" as="geometry" />
        </mxCell>
        <mxCell id="aZICNZuISpffWM0xBc0j-18" value="" style="line;strokeWidth=1;fillColor=none;align=left;verticalAlign=middle;spacingTop=-1;spacingLeft=3;spacingRight=3;rotatable=0;labelPosition=right;points=[];portConstraint=eastwest;" parent="aZICNZuISpffWM0xBc0j-16" vertex="1">
          <mxGeometry y="26" width="230" height="8" as="geometry" />
        </mxCell>
        <mxCell id="aZICNZuISpffWM0xBc0j-19" value="+ bookFlight(Flight, Customer): Booking" style="text;strokeColor=none;fillColor=none;align=left;verticalAlign=top;spacingLeft=4;spacingRight=4;overflow=hidden;rotatable=0;points=[[0,0.5],[1,0.5]];portConstraint=eastwest;" parent="aZICNZuISpffWM0xBc0j-16" vertex="1">
          <mxGeometry y="34" width="230" height="26" as="geometry" />
        </mxCell>
        <mxCell id="pPNFl-sELfXG4n1L16c5-11" style="edgeStyle=orthogonalEdgeStyle;rounded=0;orthogonalLoop=1;jettySize=auto;html=1;exitX=1;exitY=0.25;exitDx=0;exitDy=0;dashed=1;endArrow=open;endFill=0;" edge="1" parent="1" source="aZICNZuISpffWM0xBc0j-20" target="aZICNZuISpffWM0xBc0j-1">
          <mxGeometry relative="1" as="geometry">
            <Array as="points">
              <mxPoint x="310" y="215" />
              <mxPoint x="310" y="73" />
            </Array>
          </mxGeometry>
        </mxCell>
        <mxCell id="pPNFl-sELfXG4n1L16c5-12" style="edgeStyle=orthogonalEdgeStyle;rounded=0;orthogonalLoop=1;jettySize=auto;html=1;exitX=1;exitY=0.5;exitDx=0;exitDy=0;entryX=0;entryY=0.25;entryDx=0;entryDy=0;endArrow=classic;endFill=1;" edge="1" parent="1" source="aZICNZuISpffWM0xBc0j-20" target="aZICNZuISpffWM0xBc0j-8">
          <mxGeometry relative="1" as="geometry" />
        </mxCell>
        <mxCell id="pPNFl-sELfXG4n1L16c5-13" value="*" style="edgeLabel;html=1;align=center;verticalAlign=middle;resizable=0;points=[];" vertex="1" connectable="0" parent="pPNFl-sELfXG4n1L16c5-12">
          <mxGeometry x="0.6536" y="1" relative="1" as="geometry">
            <mxPoint y="-9" as="offset" />
          </mxGeometry>
        </mxCell>
        <mxCell id="pPNFl-sELfXG4n1L16c5-14" value="all flights" style="edgeLabel;html=1;align=center;verticalAlign=middle;resizable=0;points=[];" vertex="1" connectable="0" parent="pPNFl-sELfXG4n1L16c5-12">
          <mxGeometry x="0.2778" y="1" relative="1" as="geometry">
            <mxPoint x="3" y="10" as="offset" />
          </mxGeometry>
        </mxCell>
        <mxCell id="aZICNZuISpffWM0xBc0j-20" value="TravelPlanner" style="swimlane;fontStyle=1;align=center;verticalAlign=top;childLayout=stackLayout;horizontal=1;startSize=26;horizontalStack=0;resizeParent=1;resizeParentMax=0;resizeLast=0;collapsible=1;marginBottom=0;" parent="1" vertex="1">
          <mxGeometry x="20" y="201" width="230" height="60" as="geometry" />
        </mxCell>
        <mxCell id="aZICNZuISpffWM0xBc0j-22" value="" style="line;strokeWidth=1;fillColor=none;align=left;verticalAlign=middle;spacingTop=-1;spacingLeft=3;spacingRight=3;rotatable=0;labelPosition=right;points=[];portConstraint=eastwest;" parent="aZICNZuISpffWM0xBc0j-20" vertex="1">
          <mxGeometry y="26" width="230" height="8" as="geometry" />
        </mxCell>
        <mxCell id="aZICNZuISpffWM0xBc0j-23" value="+ searchFlight(City): List&lt;Flight&gt;" style="text;strokeColor=none;fillColor=none;align=left;verticalAlign=top;spacingLeft=4;spacingRight=4;overflow=hidden;rotatable=0;points=[[0,0.5],[1,0.5]];portConstraint=eastwest;" parent="aZICNZuISpffWM0xBc0j-20" vertex="1">
          <mxGeometry y="34" width="230" height="26" as="geometry" />
        </mxCell>
        <mxCell id="aZICNZuISpffWM0xBc0j-24" value="Customer" style="swimlane;fontStyle=1;align=center;verticalAlign=top;childLayout=stackLayout;horizontal=1;startSize=26;horizontalStack=0;resizeParent=1;resizeParentMax=0;resizeLast=0;collapsible=1;marginBottom=0;" parent="1" vertex="1">
          <mxGeometry x="610" y="347" width="160" height="60" as="geometry" />
        </mxCell>
        <mxCell id="aZICNZuISpffWM0xBc0j-25" value="+ name: String" style="text;strokeColor=none;fillColor=none;align=left;verticalAlign=top;spacingLeft=4;spacingRight=4;overflow=hidden;rotatable=0;points=[[0,0.5],[1,0.5]];portConstraint=eastwest;" parent="aZICNZuISpffWM0xBc0j-24" vertex="1">
          <mxGeometry y="26" width="160" height="26" as="geometry" />
        </mxCell>
        <mxCell id="aZICNZuISpffWM0xBc0j-26" value="" style="line;strokeWidth=1;fillColor=none;align=left;verticalAlign=middle;spacingTop=-1;spacingLeft=3;spacingRight=3;rotatable=0;labelPosition=right;points=[];portConstraint=eastwest;" parent="aZICNZuISpffWM0xBc0j-24" vertex="1">
          <mxGeometry y="52" width="160" height="8" as="geometry" />
        </mxCell>
        <mxCell id="aZICNZuISpffWM0xBc0j-30" style="edgeStyle=orthogonalEdgeStyle;rounded=0;orthogonalLoop=1;jettySize=auto;html=1;entryX=0.75;entryY=1;entryDx=0;entryDy=0;endArrow=classic;endFill=1;" parent="1" source="aZICNZuISpffWM0xBc0j-8" target="aZICNZuISpffWM0xBc0j-1" edge="1">
          <mxGeometry relative="1" as="geometry" />
        </mxCell>
        <mxCell id="aZICNZuISpffWM0xBc0j-32" value="destination" style="edgeLabel;html=1;align=center;verticalAlign=middle;resizable=0;points=[];" parent="aZICNZuISpffWM0xBc0j-30" vertex="1" connectable="0">
          <mxGeometry x="0.6488" relative="1" as="geometry">
            <mxPoint x="-2.43" y="9.43" as="offset" />
          </mxGeometry>
        </mxCell>
        <mxCell id="pPNFl-sELfXG4n1L16c5-1" value="1" style="edgeLabel;html=1;align=center;verticalAlign=middle;resizable=0;points=[];" vertex="1" connectable="0" parent="aZICNZuISpffWM0xBc0j-30">
          <mxGeometry x="0.749" y="-1" relative="1" as="geometry">
            <mxPoint x="8.99" as="offset" />
          </mxGeometry>
        </mxCell>
        <mxCell id="pPNFl-sELfXG4n1L16c5-3" value="*" style="edgeLabel;html=1;align=center;verticalAlign=middle;resizable=0;points=[];" vertex="1" connectable="0" parent="aZICNZuISpffWM0xBc0j-30">
          <mxGeometry x="-0.851" y="1" relative="1" as="geometry">
            <mxPoint x="10.97" as="offset" />
          </mxGeometry>
        </mxCell>
        <mxCell id="aZICNZuISpffWM0xBc0j-33" value="Airline" style="swimlane;fontStyle=1;align=center;verticalAlign=top;childLayout=stackLayout;horizontal=1;startSize=26;horizontalStack=0;resizeParent=1;resizeParentMax=0;resizeLast=0;collapsible=1;marginBottom=0;" parent="1" vertex="1">
          <mxGeometry x="610" y="216" width="160" height="60" as="geometry" />
        </mxCell>
        <mxCell id="aZICNZuISpffWM0xBc0j-34" value="+ name: String" style="text;strokeColor=none;fillColor=none;align=left;verticalAlign=top;spacingLeft=4;spacingRight=4;overflow=hidden;rotatable=0;points=[[0,0.5],[1,0.5]];portConstraint=eastwest;" parent="aZICNZuISpffWM0xBc0j-33" vertex="1">
          <mxGeometry y="26" width="160" height="26" as="geometry" />
        </mxCell>
        <mxCell id="aZICNZuISpffWM0xBc0j-35" value="" style="line;strokeWidth=1;fillColor=none;align=left;verticalAlign=middle;spacingTop=-1;spacingLeft=3;spacingRight=3;rotatable=0;labelPosition=right;points=[];portConstraint=eastwest;" parent="aZICNZuISpffWM0xBc0j-33" vertex="1">
          <mxGeometry y="52" width="160" height="8" as="geometry" />
        </mxCell>
      </root>
    </mxGraphModel>
  </diagram>
</mxfile>
